# xmcd CD database file
#
# Track frame offsets:
#	150
#	13581
#	24941
#	35869
#	49387
#	61394
#	74447
#	87865
#	101396
#	112467
#	132472
#	144066
#	152142
#	166326
#	179974
#	190207
#	201611
#	213086
#	226783
#
# Disc length: 3146 seconds
#
# Revision: 2
# Processed by: cddbd v1.5.1PL2 Copyright (c) Steve Scherf et al.
# Submitted via: CDex 1.51
#
DISCID=190c4813
DTITLE=Various Artist - Sweet Soul Music CD4
DYEAR=2002
DGENRE=Soul
TTITLE0=Dionne Warwick /- Walk On By
TTITLE1=Booker T. and The MG´s - Soul Dressing
TTITLE2=Aretha Franklin - Respect
TTITLE3=Sly and The Family Stone - If You Want Me To Stay
TTITLE4=Esther Phillips - And I Love Him
TTITLE5=Jackie Wilson - (Your Love Keeps Lifting Me) Higher And Higher
TTITLE6=King Curtis and The Kingpins - Memphis Soul Stew
TTITLE7=Arthur Conley - Ob-La-Di Ob-La-Da
TTITLE8=Chuck Willis - What Am I Living For
TTITLE9=The Manhattens - Kiss And Say Goodbye
TTITLE10=Solomon Burke - If You Need Me
TTITLE11=The Coasters - Yakety Yak
TTITLE12=The O´Jays - Black Stabbers
TTITLE13=Otis Redding and Carla Thomas - Tramp
TTITLE14=The Mar-Keys - Philly Dog
TTITLE15=Clyde McPhatter - A Lover´s Question
TTITLE16=Clarence Carter - Slip Away
TTITLE17=Percy Sledge - My Special Prayer
TTITLE18=The Clovers - Love Love, Love
EXTD=YEAR: 2002
EXTT0=
EXTT1=
EXTT2=
EXTT3=
EXTT4=
EXTT5=
EXTT6=
EXTT7=
EXTT8=
EXTT9=
EXTT10=
EXTT11=
EXTT12=
EXTT13=
EXTT14=
EXTT15=
EXTT16=
EXTT17=
EXTT18=
PLAYORDER=
